<svg width="33" height="33" viewBox="0 0 32.75 33" fill="none" xmlns="http://www.w3.org/2000/svg">
<path fill-rule="evenodd" clip-rule="evenodd" d="M0 10.875C0 5.00697 4.75697 0.25 10.625 0.25H21.875C26.3561 0.25 30.1893 3.02408 31.7509 6.94859C31.6999 6.99614 31.6456 7.04419 31.5876 7.09252C30.6837 7.84574 28.7984 8.75023 24.9377 8.75023C21.0834 8.75023 19.0475 7.84817 18.0002 7.06273C17.4736 6.66779 17.1761 6.28729 17.015 6.02839C16.9338 5.89801 16.886 5.79636 16.861 5.73653C16.8484 5.70661 16.8416 5.68715 16.8391 5.67983L16.8388 5.67881C16.6982 5.18903 16.1906 4.90003 15.6962 5.03189C15.1959 5.1653 14.8985 5.67901 15.0319 6.17929L15.9377 5.93773C15.0319 6.17929 15.0324 6.1811 15.0324 6.1811L15.0329 6.18299L15.034 6.18705L15.0366 6.19624L15.0431 6.21876C15.0482 6.2356 15.0547 6.25605 15.0627 6.27986C15.0788 6.32747 15.1012 6.38858 15.1317 6.46119C15.1925 6.60645 15.2854 6.79777 15.423 7.01895C15.6994 7.46317 16.1518 8.02017 16.8752 8.56273C18.328 9.65229 20.7921 10.6252 24.9377 10.6252C28.6298 10.6252 30.91 9.85311 32.3149 8.89022C32.4364 9.53321 32.5 10.1967 32.5 10.875V22.125C32.5 27.993 27.743 32.75 21.875 32.75H10.625C4.75697 32.75 0 27.993 0 22.125V10.875ZM26.25 15.875C26.25 16.9105 25.4105 17.75 24.375 17.75C23.3395 17.75 22.5 16.9105 22.5 15.875C22.5 14.8395 23.3395 14 24.375 14C25.4105 14 26.25 14.8395 26.25 15.875ZM8.125 17.75C9.16053 17.75 10 16.9105 10 15.875C10 14.8395 9.16053 14 8.125 14C7.08947 14 6.25 14.8395 6.25 15.875C6.25 16.9105 7.08947 17.75 8.125 17.75ZM10.8922 21.2121C10.7379 20.733 10.2301 20.4592 9.74245 20.5986C9.2446 20.7408 8.95633 21.2597 9.09857 21.7575L9.99495 21.5014C9.09857 21.7576 9.09884 21.7585 9.09911 21.7594L9.09968 21.7614L9.10087 21.7655L9.10353 21.7744L9.10999 21.795C9.11483 21.81 9.12073 21.8274 9.12787 21.8471C9.14214 21.8865 9.16131 21.9351 9.1866 21.9914C9.2372 22.1041 9.31216 22.2476 9.42084 22.4107C9.63955 22.7387 9.98861 23.1364 10.5338 23.518C11.6267 24.283 13.4383 24.9375 16.4286 24.9375C19.4119 24.9375 21.1596 24.2857 22.1827 23.49C22.6945 23.092 23.0029 22.6739 23.1854 22.3256C23.2757 22.1531 23.3334 22.0012 23.3699 21.8818C23.3882 21.8222 23.4012 21.7706 23.4104 21.7287C23.415 21.7077 23.4186 21.6891 23.4215 21.673L23.4253 21.6508L23.4268 21.6412L23.4275 21.6368L23.4278 21.6346C23.4279 21.6336 23.4281 21.6326 22.5 21.5L23.4281 21.6326C23.5013 21.12 23.1451 20.6451 22.6326 20.5719C22.1328 20.5005 21.6689 20.8374 21.5781 21.3294L21.5771 21.333C21.5718 21.3503 21.5569 21.3937 21.5244 21.4556C21.4613 21.5761 21.3234 21.783 21.0316 22.01C20.4475 22.4643 19.1596 23.0625 16.4286 23.0625C13.7045 23.0625 12.3019 22.467 11.609 21.982C11.2614 21.7386 11.0747 21.5113 10.9809 21.3706C10.9334 21.2992 10.9079 21.2474 10.8971 21.2234L10.8922 21.2121Z" fill="white"/>
</svg>
